<svg width="268" height="268" viewBox="0 0 268 268" fill="none" xmlns="http://www.w3.org/2000/svg" aria-hidden="true">
  <path d="M120.062 0.726902C141.978 -1.5653 164.122 1.58305 184.532 9.89306C204.941 18.2031 222.986 31.4183 237.069 48.368C251.151 65.3178 260.836 85.4789 265.265 107.066C269.695 128.652 268.732 150.998 262.462 172.124C256.193 193.25 244.81 212.503 229.322 228.179C213.834 243.855 194.72 255.469 173.671 261.993C152.622 268.517 130.29 269.749 108.651 265.581C87.0126 261.412 66.7361 251.971 49.6177 238.094L81.8375 198.348C92.4195 206.926 104.954 212.762 118.33 215.339C131.706 217.916 145.512 217.154 158.523 213.121C171.535 209.088 183.351 201.909 192.925 192.219C202.499 182.528 209.536 170.626 213.411 157.567C217.287 144.508 217.882 130.694 215.144 117.35C212.406 104.006 206.419 91.5427 197.714 81.0649C189.009 70.5871 177.854 62.4179 165.237 57.2809C152.621 52.1439 138.932 50.1977 125.384 51.6147L120.062 0.726902Z" fill="#F49425"/>
  <path d="M25.1363 212.133C13.7624 196.285 5.9856 178.145 2.34909 158.981C-1.28741 139.816 -0.695881 120.089 4.08235 101.176L53.6889 113.709C50.7351 125.4 50.3695 137.595 52.6175 149.442C54.8654 161.289 59.6728 172.503 66.7038 182.299L25.1363 212.133Z" fill="#008850"/>
  <path d="M47.1676 236.059C39.5684 229.594 32.715 222.3 26.735 214.313L67.6921 183.647C71.3887 188.584 75.6253 193.093 80.3229 197.09L47.1676 236.059Z" fill="#E05206"/>
  <path d="M4.94083 97.9482C10.1149 79.4259 19.2152 62.2344 31.6236 47.5415C44.0319 32.8487 59.4575 20.9989 76.8523 12.7971L98.673 59.0761C87.9201 64.1462 78.3845 71.4714 70.714 80.554C63.0436 89.6367 57.418 100.264 54.2196 111.714L4.94083 97.9482Z" fill="#FCD116"/>
  <path d="M80.5294 11.1306C91.8936 6.18508 103.889 2.84006 116.173 1.19119L122.98 51.9017C115.386 52.921 107.971 54.9887 100.946 58.0459L80.5294 11.1306Z" fill="#673B07"/>
</svg>
